# xmcd CD database file
#
# Track frame offsets:
#	150
#	11302
#	33870
#	51573
#	72688
#	93343
#	117410
#	141227
#	177305
#
# Disc length: 2488 seconds
#
# Revision: 0
# Processed by: cddbd v1.5.1PL0 Copyright (c) Steve Scherf et al.
# Submitted via: CDex 1.51
#
DISCID=7e09b609
DTITLE=ViduAccent - Exotix
DYEAR=1900
DGENRE=未分類 (日本)
TTITLE0=夜の風 〜TRANCE ver
TTITLE1=鳥の詩 〜TRANCE ver
TTITLE2=夢幻譜
TTITLE3=LASTREGRET
TTITLE4=みずいろ
TTITLE5=風の辿り着く場所
TTITLE6=sing in the everynights
TTITLE7=鳥の詩
TTITLE8=ためいき
EXTD=
EXTT0=
EXTT1=
EXTT2=
EXTT3=
EXTT4=
EXTT5=
EXTT6=
EXTT7=
EXTT8=
PLAYORDER=
